<svg width="60" height="60" fill="none" xmlns="http://www.w3.org/2000/svg"><path d="M52.524 45.997c3.576-3.188 5.602-7.436 5.602-11.845 0-4.686-2.194-9.068-6.177-12.34-3.877-3.184-9.008-4.937-14.449-4.937-5.441 0-10.572 1.753-14.448 4.937-3.983 3.272-6.177 7.654-6.177 12.34 0 4.685 2.194 9.068 6.177 12.34 3.876 3.183 9.007 4.937 14.448 4.937.725 0 1.455-.032 2.178-.096l1.236 1.071a23.42 23.42 0 0 0 15.336 5.721h1.875v-3.991l-.55-.55a23.34 23.34 0 0 1-5.051-7.587ZM43.37 49.57l-2.48-2.149-.827.101c-.85.104-1.706.157-2.563.157-9.305 0-16.875-6.069-16.875-13.527 0-7.459 7.57-13.527 16.875-13.527s16.875 6.068 16.875 13.527c0 3.716-1.854 7.185-5.22 9.768l-1.08.829.498 1.41a27.1 27.1 0 0 0 4.44 7.948 19.668 19.668 0 0 1-9.643-4.537Z" fill="#000"/><path d="M7.053 37.204a25.84 25.84 0 0 0 4.079-7.385l.495-1.404-1.08-.828c-3.174-2.436-4.922-5.705-4.922-9.205 0-7.034 7.15-12.757 15.938-12.757 6.465 0 12.043 3.097 14.54 7.535a28.37 28.37 0 0 1 4.19.102c-.965-2.5-2.641-4.783-4.945-6.675-3.699-3.039-8.594-4.712-13.785-4.712-5.192 0-10.087 1.673-13.786 4.712-3.806 3.126-5.902 7.315-5.902 11.795 0 4.195 1.916 8.237 5.303 11.278a22.077 22.077 0 0 1-4.754 7.117l-.549.549v3.924H3.75a22.34 22.34 0 0 0 9.988-2.358 18.39 18.39 0 0 1-.594-3.943 18.601 18.601 0 0 1-6.091 2.255Z" fill="#000"/></svg>