<svg width="60" height="60" fill="none" xmlns="http://www.w3.org/2000/svg"><path d="M31.721 26.921c-1.2-.3-2.4-.9-3.3-1.8-.9-.3-1.2-1.2-1.2-1.8 0-.6.3-1.5.9-1.8.9-.6 1.8-1.2 2.7-.9 1.8 0 3.3.9 4.2 2.1l2.7-3.6c-.9-.9-1.8-1.5-2.7-2.1-.9-.6-2.1-.9-3.3-.9v-4.2h-3.6v4.2c-1.5.3-3 1.2-4.2 2.4-1.2 1.5-2.1 3.3-1.8 5.1 0 1.8.6 3.6 1.8 4.8 1.5 1.5 3.6 2.4 5.4 3.3.9.3 2.1.9 3 1.5.6.6.9 1.5.9 2.4 0 .9-.3 1.8-.9 2.7-.9.9-2.1 1.2-3 1.2-1.2 0-2.7-.3-3.6-1.2-.9-.6-1.8-1.5-2.4-2.4l-3 3.3c.9 1.2 1.8 2.1 3 3 1.5.9 3.3 1.8 5.1 1.8v3.9h3.3v-4.5c1.8-.3 3.3-1.2 4.5-2.4 1.5-1.5 2.4-3.9 2.4-6 0-1.8-.6-3.9-2.1-5.1-1.5-1.5-3-2.4-4.8-3Zm-1.8-21c-13.2 0-24 10.8-24 24s10.8 24 24 24 24-10.8 24-24-10.8-24-24-24Zm0 44.7c-11.4 0-20.7-9.3-20.7-20.7 0-11.4 9.3-20.7 20.7-20.7 11.4 0 20.7 9.3 20.7 20.7 0 11.4-9.3 20.7-20.7 20.7Z" fill="#000"/></svg>