<svg width="60" height="60" fill="none" xmlns="http://www.w3.org/2000/svg"><path d="M5.236 27.716A2.5 2.5 0 0 1 7.726 25H12.5a2.5 2.5 0 0 1 2.5 2.5v23.75a2.5 2.5 0 0 1-2.5 2.5H9.792a2.5 2.5 0 0 1-2.49-2.284l-2.066-23.75v0Zm17.264-.997c0-1.045.65-1.98 1.594-2.425 2.061-.973 5.572-2.927 7.156-5.568 2.041-3.405 2.426-9.556 2.489-10.965.009-.197.004-.395.03-.59.339-2.441 5.05.41 6.856 3.425.981 1.635 1.106 3.784 1.004 5.463-.111 1.795-.638 3.528-1.154 5.251l-1.1 3.671h13.571a2.5 2.5 0 0 1 2.407 3.179L48.64 51.93a2.501 2.501 0 0 1-2.407 1.82H25a2.5 2.5 0 0 1-2.5-2.5V26.719Z" stroke="#000" stroke-width="6" stroke-linecap="round" stroke-linejoin="round"/></svg>