<svg width="150" height="150" fill="none" xmlns="http://www.w3.org/2000/svg"><path d="M138.197 40.425 91.322 14.644a4.688 4.688 0 0 0-4.519 0l-46.875 25.78a4.688 4.688 0 0 0 0 8.213l44.447 24.446v50.245L70.144 115.5l-4.519 8.208 21.178 11.648a4.674 4.674 0 0 0 4.519 0l46.875-25.781a4.693 4.693 0 0 0 2.428-4.106V44.531a4.688 4.688 0 0 0-2.428-4.106ZM89.062 24.103l37.149 20.428L89.063 64.96l-37.15-20.429 37.148-20.428Zm42.188 78.595-37.5 20.625V73.078l37.5-20.625v50.245Z" fill="#414141"/><path d="M46.875 75h-37.5v-9.375h37.5V75Zm9.375 37.5h-37.5v-9.375h37.5v9.375Zm9.375-18.75h-37.5v-9.375h37.5v9.375Z" fill="#414141"/></svg>