<svg width="32" height="32" fill="none" xmlns="http://www.w3.org/2000/svg"><path d="M16 0C7.163 0 0 7.163 0 16s7.163 16 16 16 16-7.163 16-16S24.837 0 16 0Z" fill="#40B3E0"/><path d="m23.785 9.204-2.858 14.409s-.4.999-1.498.52l-6.595-5.057-2.398-1.159-4.037-1.359s-.62-.22-.68-.7c-.06-.479.7-.739.7-.739l16.047-6.295s1.32-.58 1.32.38" fill="#fff"/><path d="M12.327 23.45s-.192-.017-.432-.777-1.459-4.756-1.459-4.756l9.692-6.155s.56-.34.54 0c0 0 .1.06-.2.34-.3.28-7.614 6.854-7.614 6.854" fill="#D2E5F1"/><path d="m15.363 21.015-2.609 2.378s-.204.154-.427.058l.5-4.418" fill="#B5CFE4"/></svg>