<svg width="355" height="90" fill="none" xmlns="http://www.w3.org/2000/svg"><path d="M341.745 89.991H13.144C5.784 89.991 0 85.041 0 78.742V11.25C0 4.949 5.783 0 13.144 0h328.601c7.361 0 13.144 4.95 13.144 11.249v67.493c0 6.3-5.783 11.25-13.144 11.25Z" fill="#000"/><path d="M341.745 1.8c6.047 0 11.041 4.274 11.041 9.449v67.493c0 5.175-4.994 9.45-11.041 9.45H13.144c-6.046 0-11.041-4.275-11.041-9.45V11.25c0-5.175 4.995-9.45 11.041-9.45h328.601Zm0-1.8H13.144C5.784 0 0 5.175 0 11.249v67.493c0 6.3 5.783 11.25 13.144 11.25h328.601c7.361 0 13.144-4.95 13.144-11.25V11.25c0-6.076-5.783-11.25-13.144-11.25Z" fill="#A6A6A6"/><path d="M124.606 22.948c0 1.8-.526 3.375-1.841 4.5-1.577 1.35-3.417 2.024-5.783 2.024-2.366 0-4.206-.675-5.783-2.025-1.578-1.35-2.366-2.924-2.366-4.95 0-2.024.788-3.599 2.366-4.949 1.577-1.35 3.417-2.024 5.783-2.024 1.052 0 2.103.225 3.155.674 1.051.45 1.84.9 2.366 1.575l-1.315 1.125c-1.051-1.125-2.366-1.575-4.206-1.575-1.577 0-3.155.45-4.206 1.575-1.314.9-1.84 2.25-1.84 3.825 0 1.575.526 2.925 1.84 3.824 1.314.9 2.629 1.575 4.206 1.575 1.84 0 3.155-.45 4.469-1.575.789-.675 1.314-1.574 1.314-2.7h-5.783v-1.8h7.624v.9Zm12.092-5.625H129.6v4.275h6.572v1.575H129.6v4.274h7.098v1.8h-9.201V15.75h9.201v1.574Zm8.675 11.924h-2.103V17.323h-4.469v-1.575h11.041v1.575h-4.469v11.924Zm12.093 0V15.75h2.103v13.498h-2.103Zm11.041 0h-2.103V17.323h-4.469v-1.575h10.778v1.575h-4.469v11.924h.263Zm24.973-1.8c-1.577 1.35-3.417 2.025-5.783 2.025-2.366 0-4.206-.675-5.783-2.025-1.578-1.35-2.366-2.924-2.366-4.95 0-2.024.788-3.599 2.366-4.949 1.577-1.35 3.417-2.024 5.783-2.024 2.366 0 4.206.674 5.783 2.024 1.578 1.35 2.366 2.925 2.366 4.95 0 2.025-.788 3.6-2.366 4.95Zm-9.989-1.124c1.051.9 2.629 1.574 4.206 1.574 1.577 0 3.155-.45 4.206-1.574 1.052-.9 1.84-2.25 1.84-3.825 0-1.575-.526-2.925-1.84-3.825-1.051-.9-2.629-1.575-4.206-1.575-1.577 0-3.155.45-4.206 1.575-1.052.9-1.84 2.25-1.84 3.825 0 1.575.525 2.925 1.84 3.825Zm15.247 2.924V15.75h2.366l7.623 10.574V15.748h2.103v13.5h-2.103l-8.149-11.025v11.024h-1.84Z" fill="#fff" stroke="#fff" stroke-width="3.704" stroke-miterlimit="10"/><path d="M179.022 49.045c-6.309 0-11.304 4.05-11.304 9.674 0 5.4 4.995 9.674 11.304 9.674s11.304-4.05 11.304-9.674c0-5.85-4.995-9.674-11.304-9.674Zm0 15.299c-3.418 0-6.309-2.475-6.309-5.85 0-3.374 2.891-5.849 6.309-5.849 3.417 0 6.309 2.25 6.309 5.85 0 3.374-2.892 5.849-6.309 5.849Zm-24.448-15.299c-6.309 0-11.304 4.05-11.304 9.674 0 5.4 4.995 9.674 11.304 9.674s11.304-4.05 11.304-9.674c0-5.85-4.995-9.674-11.304-9.674Zm0 15.299c-3.417 0-6.309-2.475-6.309-5.85 0-3.374 2.892-5.849 6.309-5.849 3.417 0 6.309 2.25 6.309 5.85 0 3.374-2.892 5.849-6.309 5.849Zm-29.18-12.374v4.05h11.304c-.263 2.25-1.314 4.05-2.629 5.174-1.577 1.35-4.206 2.925-8.675 2.925-7.098 0-12.355-4.725-12.355-10.8 0-6.074 5.52-10.798 12.355-10.798 3.681 0 6.572 1.35 8.675 2.925l3.418-2.925c-2.892-2.25-6.572-4.05-11.83-4.05-9.464 0-17.613 6.75-17.613 14.849 0 8.1 8.149 14.848 17.613 14.848 5.258 0 8.938-1.35 12.093-4.274 3.154-2.7 4.206-6.524 4.206-9.45 0-.9 0-1.799-.263-2.474h-16.299Zm119.348 3.15c-1.051-2.25-3.68-6.075-9.464-6.075-5.783 0-10.515 3.825-10.515 9.674 0 5.4 4.732 9.674 11.041 9.674 4.995 0 8.149-2.7 9.201-4.274l-3.68-2.25c-1.315 1.575-2.892 2.7-5.521 2.7s-4.206-.9-5.52-2.925l14.984-5.4-.526-1.124Zm-15.247 3.15c0-3.6 3.417-5.625 5.783-5.625 1.841 0 3.681.9 4.206 2.025l-9.989 3.6Zm-12.355 9.223h4.994V39.371h-4.994v28.122Zm-7.887-16.423c-1.314-1.125-3.417-2.25-6.046-2.25-5.521 0-10.778 4.275-10.778 9.674 0 5.4 4.995 9.45 10.778 9.45 2.629 0 4.732-1.125 5.783-2.25h.263v1.35c0 3.6-2.366 5.624-6.046 5.624-2.892 0-4.995-1.8-5.521-3.375l-4.206 1.575c1.315 2.475 4.469 5.625 9.99 5.625 5.783 0 10.515-2.925 10.515-9.9V49.496h-4.732v1.575Zm-5.783 13.274c-3.418 0-6.309-2.475-6.309-5.85 0-3.374 2.891-5.849 6.309-5.849 3.417 0 6.046 2.475 6.046 5.85 0 3.374-2.629 5.849-6.046 5.849Zm64.143-24.973h-11.83v28.122h4.995V56.92h6.835c5.52 0 10.778-3.375 10.778-8.775s-5.258-8.774-10.778-8.774Zm.263 13.499h-7.098v-9.674h7.098c3.68 0 5.783 2.7 5.783 4.724-.263 2.475-2.366 4.95-5.783 4.95Zm30.231-4.05c-3.68 0-7.361 1.35-8.675 4.275l4.469 1.575c1.051-1.575 2.629-2.025 4.469-2.025 2.629 0 4.995 1.35 5.257 3.6v.225c-.788-.45-2.891-1.125-4.994-1.125-4.732 0-9.464 2.25-9.464 6.3 0 3.824 3.943 6.298 8.149 6.298 3.418 0 4.995-1.35 6.309-2.7h.263v2.25h4.732V56.695c-.526-4.95-4.995-7.875-10.515-7.875Zm-.526 15.524c-1.577 0-3.943-.675-3.943-2.475 0-2.25 2.892-2.925 5.258-2.925 2.103 0 3.154.45 4.469.9-.526 2.7-3.155 4.5-5.784 4.5Zm27.603-14.849-5.521 12.15h-.263l-5.783-12.15h-5.258l8.675 17.099-4.994 9.449h4.994l13.407-26.548h-5.257ZM281.02 67.493h4.994V39.371h-4.994v28.122Z" fill="#fff"/><path d="M27.34 16.873c-.789.675-1.052 1.8-1.052 3.15v49.72c0 1.35.526 2.475 1.314 3.15l.263.225 32.598-27.897v-.45L27.34 16.873Z" fill="url(#a)"/><path d="M70.978 54.67 60.2 45.446v-.675l10.778-9.224.263.225 12.88 6.3c3.681 1.799 3.681 4.724 0 6.523L70.979 54.67Z" fill="url(#b)"/><path d="m71.24 54.445-11.04-9.45-32.86 28.123c1.314 1.125 3.154 1.125 5.52.225l38.38-18.898Z" fill="url(#c)"/><path d="M71.24 35.547 32.86 16.874c-2.366-1.125-4.206-.9-5.52.225L60.2 44.995l11.04-9.45Z" fill="url(#d)"/><path opacity=".2" d="M70.978 54.22 32.86 72.668c-2.103 1.125-3.943.9-5.258 0l-.262.225.262.225c1.315.9 3.155 1.125 5.258 0L70.978 54.22Z" fill="#000"/><path opacity=".12" d="M27.34 72.668c-.789-.675-1.052-1.8-1.052-3.15v.225c0 1.35.526 2.475 1.314 3.15v-.225h-.262Zm56.782-24.747L70.978 54.22l.263.225 12.88-6.3c1.841-.9 2.63-2.024 2.63-3.15 0 1.126-1.052 2.026-2.63 2.926Z" fill="#000"/><path opacity=".25" d="m32.86 17.098 51.262 24.973c1.577.9 2.629 1.8 2.629 2.925 0-1.125-.789-2.25-2.63-3.15l-51.26-24.972c-3.681-1.8-6.573-.45-6.573 3.15v.224c0-3.375 2.892-4.95 6.572-3.15Z" fill="#fff"/><defs><linearGradient id="a" x1="57.308" y1="19.596" x2="20.003" y2="63.184" gradientUnits="userSpaceOnUse"><stop stop-color="#00A0FF"/><stop offset=".007" stop-color="#00A1FF"/><stop offset=".26" stop-color="#00BEFF"/><stop offset=".512" stop-color="#00D2FF"/><stop offset=".76" stop-color="#00DFFF"/><stop offset="1" stop-color="#00E3FF"/></linearGradient><linearGradient id="b" x1="88.943" y1="44.998" x2="25.334" y2="44.998" gradientUnits="userSpaceOnUse"><stop stop-color="#FFE000"/><stop offset=".409" stop-color="#FFBD00"/><stop offset=".775" stop-color="orange"/><stop offset="1" stop-color="#FF9C00"/></linearGradient><linearGradient id="c" x1="65.266" y1="50.161" x2="14.679" y2="109.27" gradientUnits="userSpaceOnUse"><stop stop-color="#FF3A44"/><stop offset="1" stop-color="#C31162"/></linearGradient><linearGradient id="d" x1="19.182" y1=".396" x2="41.773" y2="26.792" gradientUnits="userSpaceOnUse"><stop stop-color="#32A071"/><stop offset=".069" stop-color="#2DA771"/><stop offset=".476" stop-color="#15CF74"/><stop offset=".801" stop-color="#06E775"/><stop offset="1" stop-color="#00F076"/></linearGradient></defs></svg>