<svg width="32" height="32" fill="none" xmlns="http://www.w3.org/2000/svg"><g clip-path="url(#a)"><path d="m8.458 27.407.523.258c2.18 1.293 4.621 1.896 7.063 1.896 7.673 0 13.951-6.205 13.951-13.79 0-3.619-1.482-7.153-4.098-9.738a13.933 13.933 0 0 0-9.853-4.05C8.37 1.982 2.093 8.186 2.18 15.857c0 2.585.785 5.085 2.092 7.24l.35.517-1.396 5.084 5.232-1.293Z" fill="#00E676"/><path d="M27.38 4.654C24.414 1.638 20.315 0 16.13 0 7.237 0 .087 7.153.174 15.858c0 2.758.785 5.43 2.093 7.843L0 31.888l8.458-2.154c2.354 1.292 4.97 1.896 7.586 1.896C24.85 31.63 32 24.476 32 15.772c0-4.223-1.657-8.188-4.622-11.118ZM16.13 28.958c-2.354 0-4.709-.603-6.714-1.81l-.523-.258-5.057 1.293 1.307-4.913-.348-.517C.959 16.633 2.79 8.533 9.068 4.74 15.346.948 23.455 2.758 27.292 8.963c3.836 6.206 2.005 14.22-4.273 18.013-2.005 1.293-4.446 1.982-6.888 1.982Zm7.673-9.566-.959-.431s-1.395-.603-2.267-1.034c-.087 0-.174-.087-.262-.087-.261 0-.436.087-.61.173 0 0-.087.086-1.308 1.465a.48.48 0 0 1-.436.258h-.087c-.087 0-.262-.086-.349-.172l-.436-.172c-.959-.431-1.83-.948-2.528-1.638-.175-.172-.436-.345-.61-.517-.611-.603-1.222-1.293-1.658-2.068l-.087-.173c-.087-.086-.087-.172-.174-.344 0-.173 0-.345.087-.431 0 0 .349-.431.61-.69.175-.172.262-.43.436-.603.175-.259.262-.603.175-.862-.087-.431-1.134-2.758-1.395-3.275-.175-.259-.349-.345-.61-.431h-.96c-.174 0-.348.086-.523.086l-.087.086c-.175.087-.349.259-.523.345-.175.173-.262.345-.436.517-.61.776-.96 1.724-.96 2.672 0 .69.175 1.379.436 1.982l.088.259a14.362 14.362 0 0 0 3.226 4.395l.349.345c.261.258.523.43.697.69 1.831 1.55 3.924 2.671 6.278 3.275.262.086.61.086.872.172h.872c.436 0 .96-.172 1.308-.345.262-.172.436-.172.61-.345l.175-.172c.174-.172.349-.259.523-.43.174-.173.349-.346.436-.518.174-.345.262-.776.349-1.207v-.603s-.087-.086-.262-.172Z" fill="#fff"/></g><defs><clipPath id="a"><path fill="#fff" d="M0 0h32v32H0z"/></clipPath></defs></svg>