<svg width="101" height="100" viewBox="0 0 101 100" fill="none" xmlns="http://www.w3.org/2000/svg"><path d="M96.365 9.223L78.79.7a6.915 6.915 0 0 0-6.068 0l-8.439 4.09c-.754.367-1.111 1.374-.797 2.252.314.878 1.18 1.294 1.935.928l8.439-4.091a4.322 4.322 0 0 1 3.792 0l17.576 8.52c1.71.83 2.814 2.697 2.814 4.754v73.634c0 2.863-2.113 5.192-4.71 5.192h-2.4c-.817 0-1.479.771-1.479 1.722s.662 1.722 1.48 1.722h2.398c4.23 0 7.67-3.874 7.67-8.636V17.154c0-3.451-1.82-6.565-4.635-7.931zM84.483 95.98h-24.86c1.024-1.353 1.585-3.071 1.585-4.89 0-1.814-.565-3.476-1.499-4.765a6.535 6.535 0 0 0 1.616-1.368c1.201-1.398 1.863-3.258 1.863-5.237 0-1.886-.61-3.608-1.61-4.917a6.583 6.583 0 0 0 1.37-1.214c1.202-1.398 1.863-3.258 1.863-5.237 0-1.88-.606-3.599-1.601-4.906.504-.33.973-.74 1.394-1.228 1.201-1.401 1.862-3.26 1.862-5.236 0-4.085-2.854-7.408-6.363-7.408h-6.635v-32.42c0-2.057 1.105-3.924 2.814-4.753l2.691-1.304c.754-.365 1.111-1.373.797-2.251-.314-.878-1.18-1.294-1.934-.928l-2.692 1.304c-2.816 1.367-4.634 4.48-4.634 7.932v32.42h-6.182c2.058-7.57 1.883-15.47-.52-24.64-.364-1.389-1.09-2.578-2.1-3.44-1.002-.856-2.191-1.31-3.437-1.31-1.605 0-3.098.747-4.204 2.102-1.105 1.354-1.667 3.127-1.584 4.992.463 10.353-3.64 13.916-9.32 18.849-1.87 1.623-3.914 3.4-5.922 5.577v-2.257c0-.95-.663-1.721-1.48-1.721H1.48c-.817 0-1.479.77-1.479 1.721v48.831C0 99.23.662 100 1.48 100h14.28c.818 0 1.48-.77 1.48-1.722v-4.331c2.81.31 4.862.963 6.856 2.741 1.31 1.168 2.923 1.81 4.544 1.81h26.093a6.98 6.98 0 0 0 3.445.926h26.304c.817 0 1.48-.77 1.48-1.722 0-.951-.663-1.721-1.48-1.721zm-58.586-2.025c-2.79-2.488-5.77-3.18-8.656-3.47V70.383c0-.951-.662-1.722-1.48-1.722-.817 0-1.479.77-1.479 1.722v26.175H2.959V51.169h11.323v11.71c0 .952.662 1.723 1.48 1.723.817 0 1.479-.771 1.479-1.722v-6.285c2.475-3.178 5.125-5.48 7.692-7.708 5.683-4.935 11.05-9.597 10.506-21.787-.041-.913.234-1.78.775-2.443.54-.663 1.272-1.028 2.058-1.028.612 0 1.195.222 1.687.642.49.419.844.996 1.02 1.669 2.447 9.34 2.409 17.198-.12 24.73-.178.53-.12 1.127.156 1.597s.733.751 1.222.751h17.866c1.877 0 3.405 1.779 3.405 3.965 0 1.057-.355 2.052-.996 2.8-.645.75-1.5 1.162-2.41 1.162h-6.077c-.817 0-1.48.77-1.48 1.722 0 .95.663 1.721 1.48 1.721h4.423c1.877 0 3.405 1.779 3.405 3.965 0 1.06-.354 2.054-.997 2.803-.643.748-1.498 1.16-2.408 1.16h-4.423c-.817 0-1.48.77-1.48 1.721 0 .951.663 1.722 1.48 1.722h2.8c1.877 0 3.404 1.778 3.404 3.962 0 1.06-.354 2.054-.997 2.803-.644.75-1.5 1.162-2.408 1.162h-4.423c-.817 0-1.479.77-1.479 1.722 0 .95.662 1.721 1.48 1.721h2.442c1.877 0 3.405 1.778 3.405 3.963 0 1.058-.355 2.055-.996 2.803-.6.697-1.55 1.142-2.26 1.157l-26.352.004c-.974 0-1.948-.392-2.744-1.101z" fill="#e22521"/><path d="M81.094 17.92c0-3.619-2.529-6.562-5.638-6.562s-5.638 2.943-5.638 6.561 2.53 6.562 5.638 6.562c3.109 0 5.638-2.944 5.638-6.562zm-8.317 0c0-1.72 1.202-3.119 2.68-3.119 1.476 0 2.678 1.4 2.678 3.118 0 1.72-1.202 3.118-2.679 3.118-1.477 0-2.68-1.398-2.68-3.118zm-1.519 65.275v-6.542h-3.596v-3.126h3.596v-4.281h-3.596V65.59h3.596V48.852h7.77c3.61 0 6.282.85 8.018 2.55 1.764 1.699 2.646 4.168 2.646 7.407 0 3.27-.951 5.835-2.852 7.695-1.901 1.828-4.698 2.742-8.39 2.742h-3.472v4.28h6.82v3.127h-6.82v6.541h-3.72zm6.654-17.605c2.508 0 4.45-.48 5.828-1.443 1.405-.962 2.108-2.693 2.108-5.194 0-2.18-.579-3.8-1.736-4.858-1.157-1.058-2.962-1.587-5.414-1.587h-3.72V65.59h2.934z" fill="#e22521"/></svg>