<svg width="101" height="100" viewBox="0 0 101 100" fill="none" xmlns="http://www.w3.org/2000/svg"><path d="M100.997 94.398c-.221-3.44-1.642-6.679-4-9.117a13.752 13.752 0 0 0-4.164-2.959c2.443-1.806 4.04-4.762 4.04-8.1 0-5.486-4.31-9.949-9.608-9.949-5.297 0-9.607 4.463-9.607 9.949 0 3.342 1.601 6.302 4.05 8.107-2.88 1.325-5.253 3.645-6.693 6.549a14.211 14.211 0 0 0-2.528-3.597 13.752 13.752 0 0 0-4.164-2.96c2.443-1.805 4.04-4.761 4.04-8.1 0-5.485-4.31-9.948-9.608-9.948-5.297 0-9.607 4.463-9.607 9.949 0 3.342 1.601 6.302 4.05 8.107-2.88 1.325-5.253 3.645-6.693 6.549a14.215 14.215 0 0 0-2.529-3.597 13.75 13.75 0 0 0-4.163-2.96c2.443-1.805 4.04-4.762 4.04-8.1 0-5.485-4.31-9.948-9.608-9.948-5.297 0-9.607 4.463-9.607 9.949 0 3.342 1.601 6.302 4.049 8.107-2.88 1.325-5.252 3.645-6.692 6.548a14.215 14.215 0 0 0-2.529-3.596 13.751 13.751 0 0 0-4.163-2.96c2.442-1.805 4.04-4.761 4.04-8.1 0-5.485-4.31-9.948-9.608-9.948-5.297 0-9.607 4.463-9.607 9.949 0 3.342 1.601 6.302 4.05 8.107C3.635 84.42.351 88.98.002 94.398a1.552 1.552 0 0 0 .632 1.36C4.49 98.533 9.02 100 13.735 100c4.375 0 8.59-1.266 12.256-3.666a22.524 22.524 0 0 0 8.81 3.4c.807.125 1.56-.45 1.683-1.287.121-.837-.436-1.618-1.244-1.743a19.612 19.612 0 0 1-7.686-2.969c.763-5.429 5.305-9.564 10.69-9.564 2.885 0 5.598 1.164 7.64 3.278a11.297 11.297 0 0 1 3.051 6.286 19.61 19.61 0 0 1-7.686 2.969c-.808.126-1.365.906-1.243 1.743.11.759.741 1.304 1.46 1.304.074 0 .148-.005.223-.017a22.526 22.526 0 0 0 8.809-3.4A22.267 22.267 0 0 0 62.755 100c4.374 0 8.59-1.265 12.255-3.665A22.266 22.266 0 0 0 87.265 100c4.714 0 9.244-1.467 13.099-4.242.427-.307.667-.823.633-1.36zm-87.262-27.06c3.666 0 6.648 3.088 6.648 6.884 0 3.796-2.982 6.885-6.648 6.885-3.666 0-6.649-3.089-6.649-6.885s2.983-6.884 6.649-6.884zm0 29.598a19.394 19.394 0 0 1-10.69-3.2c.761-5.428 5.304-9.565 10.69-9.565 2.885 0 5.598 1.164 7.64 3.278a11.3 11.3 0 0 1 3.05 6.288 19.4 19.4 0 0 1-10.69 3.199zm24.51-29.599c3.666 0 6.648 3.089 6.648 6.885s-2.982 6.885-6.648 6.885c-3.666 0-6.649-3.089-6.649-6.885s2.983-6.884 6.649-6.884zm49.02 0c3.666 0 6.649 3.089 6.649 6.885s-2.983 6.885-6.649 6.885-6.648-3.089-6.648-6.885 2.982-6.884 6.648-6.884zm-24.51 0c3.666 0 6.649 3.089 6.649 6.885s-2.983 6.885-6.649 6.885-6.648-3.089-6.648-6.885 2.982-6.884 6.648-6.884zm0 29.599a19.394 19.394 0 0 1-10.69-3.2c.762-5.428 5.305-9.565 10.69-9.565 2.886 0 5.598 1.164 7.64 3.278a11.3 11.3 0 0 1 3.051 6.288 19.4 19.4 0 0 1-10.69 3.199zm24.51 0a19.393 19.393 0 0 1-10.69-3.2c.762-5.428 5.305-9.565 10.69-9.565 2.886 0 5.599 1.164 7.64 3.278a11.3 11.3 0 0 1 3.051 6.288 19.4 19.4 0 0 1-10.69 3.199zm-63.658-43.77h3.462v5.804c0 .562.297 1.078.774 1.346a1.44 1.44 0 0 0 1.512-.062l10.523-7.088h22.627L72.9 60.25a1.436 1.436 0 0 0 1.509.072 1.54 1.54 0 0 0 .784-1.337l.056-5.819h2.319c4.085 0 7.41-3.441 7.41-7.672v-.76c0-.846-.663-1.532-1.48-1.532s-1.48.686-1.48 1.532v.76c0 2.541-1.996 4.608-4.45 4.608h-3.784c-.81 0-1.47.677-1.48 1.517l-.043 4.528-8.502-5.792a1.441 1.441 0 0 0-.813-.252H39.44c-.286 0-.566.086-.806.247l-8.605 5.796v-4.512c0-.846-.662-1.532-1.48-1.532h-4.941c-2.454 0-4.45-2.067-4.45-4.608v-30c0-2.54 1.996-4.608 4.45-4.608h3.286c.817 0 1.48-.686 1.48-1.532 0-.847-.663-1.532-1.48-1.532h-3.286c-4.086 0-7.41 3.442-7.41 7.672v30c0 4.23 3.324 7.672 7.41 7.672z" fill="#e22521"/><path d="M33.208 46.048h9.033c.818 0 1.48-.686 1.48-1.532v-1.808c1.38.189 2.444.551 3.462 1.36a5.185 5.185 0 0 0 3.205 1.134H66.96c2.52 0 4.57-2.122 4.57-4.731a4.82 4.82 0 0 0-.704-2.52 4.78 4.78 0 0 0 1.956-3.88c0-.974-.286-1.881-.776-2.635a4.785 4.785 0 0 0 1.804-3.764c0-.97-.284-1.873-.77-2.625a4.784 4.784 0 0 0 1.816-3.774c0-2.61-2.05-4.732-4.57-4.732h-9.248a21.16 21.16 0 0 0 .716-5.656h15.815c2.454 0 4.45 2.068 4.45 4.609v22.564c0 .846.663 1.532 1.48 1.532s1.48-.686 1.48-1.532V15.494c0-4.23-3.325-7.673-7.41-7.673H61.532a31.618 31.618 0 0 0-1.03-4.748C59.96 1.235 58.342 0 56.478 0a4.16 4.16 0 0 0-3.053 1.358 4.469 4.469 0 0 0-1.151 3.227c.063 1.25-.011 2.31-.203 3.236h-18.73c-.817 0-1.48.686-1.48 1.532 0 .847.663 1.533 1.48 1.533h17.4c-1.002 1.396-2.434 2.505-4.145 3.827-.913.705-1.89 1.462-2.876 2.334v-.015c0-.846-.662-1.531-1.48-1.531h-9.033c-.818 0-1.48.685-1.48 1.531v27.484c0 .846.662 1.532 1.48 1.532zm15.159-28.88c3.714-2.87 7.222-5.58 6.863-12.742a1.31 1.31 0 0 1 .342-.959c.238-.26.56-.403.907-.403.545 0 1.035.371 1.192.903 1.51 5.127 1.49 9.432-.062 13.549a1.579 1.579 0 0 0 .156 1.421c.276.418.733.668 1.222.668h11.3c.887 0 1.61.749 1.61 1.668 0 .92-.723 1.668-1.61 1.668h-3.844c-.818 0-1.48.685-1.48 1.532 0 .846.662 1.532 1.48 1.532h2.797c.888 0 1.61.748 1.61 1.667 0 .92-.722 1.668-1.61 1.668h-2.797c-.818 0-1.48.686-1.48 1.532s.662 1.532 1.48 1.532h1.77c.888 0 1.61.748 1.61 1.667 0 .92-.722 1.668-1.61 1.668h-2.798c-.817 0-1.48.686-1.48 1.532s.663 1.532 1.48 1.532h1.545c.888 0 1.61.748 1.61 1.668 0 .92-.722 1.667-1.61 1.667H50.388c-.498 0-.997-.178-1.405-.502-1.713-1.36-3.51-1.818-5.262-2.017V21.274c1.49-1.667 3.093-2.905 4.646-4.106zm-13.68 1.396h6.075v24.42h-6.075v-24.42z" fill="#e22521"/></svg>