<svg width="81" height="100" viewBox="0 0 81 100" fill="none" xmlns="http://www.w3.org/2000/svg"><path fill-rule="evenodd" clip-rule="evenodd" d="M29.607.066c-.164.056-2.035 1.807-4.16 3.89l-3.861 3.788-4.852 1.277c-2.669.702-5.097 1.375-5.396 1.496-.633.255-.723.51-2.334 6.628l-1.056 4.01-3.925 3.928C1.088 28.021.1 29.131.1 29.485c.001.26.614 2.723 1.363 5.472l1.36 4.999-.902 3.369-.903 3.37.401.533c.25.33.626.556.992.592 1.081.108 1.355-.36 2.332-3.985.495-1.837.899-3.598.896-3.913-.002-.315-.576-2.642-1.275-5.17l-1.271-4.598 3.532-3.52c1.942-1.938 3.62-3.698 3.73-3.914.108-.215.75-2.46 1.425-4.988.675-2.529 1.286-4.659 1.358-4.734.072-.075 2.314-.716 4.982-1.426l4.852-1.29 3.666-3.611c2.016-1.987 3.773-3.612 3.903-3.612.13 0 2.402.579 5.049 1.285L40.4 5.63l5.006-1.318 5.006-1.318 3.708 3.615 3.708 3.615 4.753 1.235c4.965 1.29 5.446 1.45 5.446 1.811 0 .121.55 2.253 1.22 4.737l1.22 4.518 3.723 3.717 3.722 3.717-1.277 4.695c-.702 2.582-1.274 4.96-1.27 5.282.003.323.576 2.656 1.274 5.184l1.268 4.598-3.532 3.521c-1.943 1.937-3.622 3.698-3.732 3.913-.11.215-.754 2.46-1.433 4.988-.678 2.529-1.29 4.66-1.358 4.736-.069.076-2.174.675-4.678 1.33-2.505.656-4.804 1.288-5.11 1.406-.304.118-2.101 1.803-3.992 3.744l-3.437 3.53-5.042-1.328-5.042-1.327-4.988 1.322-4.989 1.322-3.714-3.65c-2.042-2.008-3.765-3.65-3.829-3.65-.494 0-9.764-2.583-9.868-2.75-.074-.117-.702-2.342-1.397-4.944l-1.263-4.73-2.79-2.787c-2.565-2.561-2.85-2.788-3.505-2.788-.902 0-1.625.784-1.436 1.557.067.274 1.263 1.642 2.657 3.04l2.535 2.544 1.33 4.989c1.03 3.865 1.429 5.078 1.774 5.388.27.243 1.451.659 3.006 1.058 4.008 1.029 4.442 1.174 4.442 1.482 0 .156-1.34 5.22-2.979 11.256-1.69 6.221-2.927 11.135-2.859 11.348.196.61.678.964 1.309.964.325 0 2.73-.669 5.346-1.486 2.615-.818 4.78-1.457 4.81-1.419.8 1.007 6.856 7.38 7.18 7.556.5.273 1.315.151 1.649-.247.117-.14 1.544-5.161 3.172-11.16 1.628-5.999 3.01-10.957 3.073-11.019.153-.15 2.405-.156 2.558-.006.066.066 1.45 5.025 3.077 11.022 1.625 5.996 3.053 11.018 3.171 11.16.337.401 1.151.524 1.653.25.252-.137 1.96-1.878 3.798-3.868s3.4-3.645 3.473-3.675c.073-.031 2.227.607 4.787 1.418 2.56.81 4.927 1.474 5.261 1.474.645 0 1.127-.35 1.324-.962.165-.513-2.36-9.744-2.795-10.22-.505-.55-1.599-.417-2.106.257l-.39.519.91 3.382c.501 1.86.879 3.414.84 3.453-.04.039-1.927-.512-4.195-1.225-3.234-1.016-4.214-1.254-4.55-1.103-.234.106-1.703 1.566-3.262 3.246-1.56 1.68-2.9 2.985-2.978 2.902-.16-.17-4.723-16.94-4.635-17.038.03-.034 1.21.252 2.62.636 1.41.384 2.867.698 3.239.698.614 0 1.028-.349 4.53-3.81 2.12-2.097 3.915-3.747 3.99-3.669.075.079.552 1.684 1.061 3.567.51 1.883 1.066 3.577 1.238 3.766.671.737 2.428.17 2.428-.784 0-.19-.433-1.928-.963-3.864s-.944-3.544-.92-3.574c.024-.029 1.677-.487 3.674-1.019 2.134-.568 3.774-1.11 3.981-1.316.216-.214.882-2.307 1.72-5.404l1.367-5.053 3.888-3.86c2.929-2.905 3.89-3.976 3.89-4.336 0-.263-.614-2.734-1.363-5.49l-1.362-5.01 1.362-5.032c.75-2.767 1.362-5.217 1.362-5.444 0-.274-1.318-1.729-3.93-4.336l-3.929-3.924-1.351-5.033c-.998-3.718-1.46-5.13-1.764-5.4-.254-.224-2.357-.87-5.463-1.68l-5.05-1.316-3.862-3.775C53.425 1.875 51.52.12 51.318.05c-.212-.073-2.606.471-5.6 1.271l-5.23 1.398-4.995-1.309C29.419-.18 29.964-.057 29.607.066zm6.238 9.538c-6.686 1.038-12.555 3.99-17.329 8.72-5.229 5.182-8.24 11.578-8.944 18.995-.635 6.7 1.217 13.888 5.035 19.54 4.601 6.81 11.47 11.391 19.654 13.107 2.518.528 7.594.733 10.068.407 6.972-.919 13.188-3.945 18.139-8.832 8.322-8.216 11.18-20.285 7.44-31.415-1.217-3.62-3.165-6.998-5.875-10.19-1.717-2.023-3.972-3.965-4.604-3.965-.615 0-1.255.552-1.415 1.22-.116.483.105.774 2.258 2.962 3.553 3.612 5.51 6.719 6.964 11.054 1.16 3.456 1.461 5.664 1.322 9.685-.119 3.447-.321 4.69-1.231 7.554-2.197 6.92-7.531 13.047-14.27 16.393-2.087 1.036-4.614 1.9-7.074 2.42-2.886.61-8.082.61-10.967 0-4.999-1.055-9.864-3.449-13.134-6.46l-1.286-1.184 4.677-.01c4.424-.007 4.704-.03 5.198-.413.462-.359.522-.544.522-1.59v-1.186l.7.112c.668.107 1.56.502 3.756 1.665l.99.524 8.714.064c5.92.043 9.04-.007 9.728-.155 1.198-.259 2.475-1.25 3.053-2.368.454-.88.512-2.697.115-3.606-.24-.55-.215-.635.412-1.364 1.2-1.395 1.49-3.35.718-4.855-.265-.516-.244-.586.402-1.332 1.103-1.272 1.368-3.244.627-4.66-.221-.423-.178-.562.414-1.328.363-.47.761-1.225.885-1.677.472-1.731-.323-3.797-1.843-4.791l-.816-.534-5.337-.058-5.337-.058.125-.725c.508-2.956.587-4.385.357-6.53-.299-2.796-1.017-5.603-1.694-6.612-1.275-1.904-4.097-2.26-5.95-.75-1.129.918-1.35 1.536-1.513 4.21-.126 2.09-.22 2.552-.755 3.679-.747 1.577-2.055 2.891-5.205 5.23-1.268.941-2.36 1.712-2.426 1.712-.066 0-.12-.119-.12-.264 0-.144-.163-.408-.362-.586-.325-.29-1.208-.324-8.54-.324h-8.18l.125-.615c.205-1.011 1.83-4.219 3.046-6.01 1.441-2.125 4.392-5.175 6.564-6.785.924-.686 2.71-1.77 3.97-2.409 7.411-3.764 15.668-4.139 23.551-1.067 1.724.671 1.892.702 2.374.435.677-.376.966-1.175.663-1.834-.411-.89-4.58-2.384-8.504-3.047-2.643-.446-7.313-.493-9.855-.099zm8.677 10.043c.615.671 1.16 3.48 1.26 6.497.086 2.617.053 2.98-.425 4.695-.809 2.903-.805 2.848-.233 3.412l.506.5h12.077l.54.459c.692.588.723 1.502.075 2.184-.446.47-.559.488-2.914.488-2.337 0-2.473.022-2.936.48-.583.576-.623 1.267-.108 1.895.346.422.554.467 2.426.528 1.746.056 2.114.126 2.493.474.616.564.597 1.578-.04 2.207-.451.446-.628.48-2.461.48-1.898 0-1.991.02-2.386.516-.518.65-.518 1.058 0 1.708.368.462.543.515 1.697.515 1.841 0 2.627.5 2.64 1.678.004.399-.166.761-.503 1.074-.452.42-.738.483-2.59.572-1.762.084-2.126.158-2.364.48-.418.566-.34 1.241.206 1.78.415.41.672.481 1.755.481 1.107 0 1.336.066 1.791.516.672.663.686 1.492.036 2.134l-.486.48H37.056l-1.359-.798c-.846-.496-1.991-.952-3.032-1.205l-1.672-.408V36.376l1.139-1.06c.626-.584 2.27-1.924 3.655-2.979 3.07-2.34 4.692-4.016 5.468-5.648.87-1.833 1.021-2.644 1.213-6.547.039-.78 1.475-1.127 2.053-.495zM28.22 45.218v11.445H17.913l-1.098-1.665c-1.867-2.83-3.194-6.003-3.97-9.494-.46-2.067-.528-8.796-.107-10.605l.261-1.125H28.22v11.444zm1.31 34.501c.329.165 1.046.046 3.36-.556 1.617-.421 2.956-.748 2.973-.726.071.085-4.526 16.873-4.658 17.014-.078.083-1.418-1.223-2.978-2.902-1.56-1.68-3.026-3.14-3.259-3.244-.329-.148-1.334.097-4.545 1.108-2.267.713-4.159 1.261-4.204 1.217-.071-.07 4.881-18.551 5.173-19.301.077-.2 1.273.852 3.915 3.446 2.092 2.055 3.992 3.83 4.222 3.944z" fill="#e22521"/></svg>