<svg width="97" height="100" viewBox="0 0 97 100" fill="none" xmlns="http://www.w3.org/2000/svg"><path d="M91.089 31.166v-4.118c0-2.961-2.432-5.37-5.42-5.37s-5.42 2.409-5.42 5.37v5.508l.002.02V52.71c0 .81.661 1.465 1.477 1.465.817 0 1.479-.656 1.479-1.465V34.02h4.926v44.666h-4.926V59.094c0-.81-.662-1.465-1.478-1.465-.817 0-1.478.656-1.478 1.465V80.14c0 .046.002.093.006.14l.001.023c.004.032.01.064.015.095l.011.063.005.026 2.463 10.383A1.475 1.475 0 0 0 84.19 92v1.502c0 .81.662 1.465 1.478 1.465s1.478-.656 1.478-1.465V92h.001c.686 0 1.282-.468 1.44-1.13l2.462-10.383v-.003c.026-.107.04-.218.04-.332v-46.04c1.657.207 2.955 1.184 2.955 2.319v19.318c0 .809.662 1.464 1.478 1.464S97 56.558 97 55.75V36.43c0-2.741-2.597-5.001-5.911-5.265zm-7.883-4.118c0-1.346 1.105-2.441 2.463-2.441 1.359 0 2.463 1.095 2.463 2.441v4.044h-4.926v-4.044zm2.77 62.023h-.614l-1.768-7.454h4.15l-1.767 7.454zm-12.02-77.266h-5.39a1.47 1.47 0 0 0-1.478 1.465 1.47 1.47 0 0 0 1.478 1.464h3.912V97.07H2.956V14.734h13.047v3.055H7.519c-.817 0-1.478.656-1.478 1.465V74.51c0 .809.661 1.465 1.478 1.465.816 0 1.478-.656 1.478-1.465V20.719h57.44v70.365H8.998V80.893c0-.81-.662-1.465-1.478-1.465a1.47 1.47 0 0 0-1.478 1.465v11.656c0 .809.661 1.465 1.478 1.465h60.397c.816 0 1.478-.656 1.478-1.465V19.254c0-.81-.662-1.465-1.478-1.465H59.43v-3.055h2.695a1.47 1.47 0 0 0 1.478-1.464c0-.81-.662-1.465-1.478-1.465H59.43v-1.361c0-.81-.662-1.465-1.478-1.465h-10.09C47.143 3.912 42.74 0 37.431 0c-5.308 0-9.71 3.912-10.432 8.979h-9.518c-.816 0-1.478.656-1.478 1.465v1.36H1.478A1.473 1.473 0 0 0 0 13.27v85.265C0 99.345.662 100 1.478 100h72.478c.817 0 1.478-.656 1.478-1.465V13.27a1.47 1.47 0 0 0-1.478-1.464zM37.431 2.93c3.675 0 6.748 2.605 7.437 6.049H29.994c.69-3.444 3.762-6.05 7.437-6.05zm-18.472 8.979h37.516v5.88H18.959v-5.88z" fill="#e22521"/><path d="M14.92 47.008h10.872c.817 0 1.478-.656 1.478-1.465V33.562a1.47 1.47 0 0 0-1.478-1.465H14.921c-.817 0-1.478.656-1.478 1.465v11.981c0 .81.661 1.465 1.478 1.465zm1.48-11.981h7.915v9.051H16.4v-9.051zm15.645 5.99h27.118c.816 0 1.478-.655 1.478-1.465a1.47 1.47 0 0 0-1.478-1.464H32.045a1.47 1.47 0 0 0-1.478 1.465 1.47 1.47 0 0 0 1.478 1.464zM13.443 63.884c0 .809.661 1.465 1.478 1.465h10.871c.817 0 1.478-.656 1.478-1.465V51.902c0-.809-.661-1.465-1.478-1.465H14.921c-.817 0-1.478.656-1.478 1.465v11.982zm2.956-10.517h7.915v9.052H16.4v-9.052zm15.646 5.991h27.118c.816 0 1.478-.656 1.478-1.465 0-.81-.662-1.465-1.478-1.465H32.045c-.817 0-1.478.656-1.478 1.465 0 .81.661 1.465 1.478 1.465zM13.443 82.224c0 .81.661 1.465 1.478 1.465h10.871c.817 0 1.478-.656 1.478-1.465V70.243a1.47 1.47 0 0 0-1.478-1.465H14.921c-.817 0-1.478.656-1.478 1.465v11.981zm2.956-10.516h7.915v9.051H16.4v-9.051zm15.646 5.99h27.118c.816 0 1.478-.655 1.478-1.465 0-.809-.662-1.465-1.478-1.465H32.045c-.817 0-1.478.656-1.478 1.465 0 .81.661 1.465 1.478 1.465zm0-30.69h27.118c.816 0 1.478-.655 1.478-1.465 0-.809-.662-1.465-1.478-1.465H32.045c-.817 0-1.478.656-1.478 1.465 0 .81.661 1.465 1.478 1.465zm0 18.34h27.118a1.47 1.47 0 0 0 1.478-1.464c0-.81-.662-1.465-1.478-1.465H32.045a1.47 1.47 0 0 0-1.478 1.465 1.47 1.47 0 0 0 1.478 1.464zm0 18.341h27.118c.816 0 1.478-.656 1.478-1.465 0-.81-.662-1.465-1.478-1.465H32.045c-.817 0-1.478.656-1.478 1.465 0 .81.661 1.465 1.478 1.465z" fill="#e22521"/></svg>