<svg width="105" height="104" viewBox="0 0 105 104" fill="none" xmlns="http://www.w3.org/2000/svg"><path d="M93.226 52c0 22.27-18.234 40.323-40.726 40.323-22.492 0-40.726-18.053-40.726-40.323S30.008 11.677 52.5 11.677m-2.85 25.404v19.758h19.548M103 52a49.65 49.65 0 0 1-8.51 27.778 50.395 50.395 0 0 1-22.664 18.416 50.975 50.975 0 0 1-29.178 2.845A50.656 50.656 0 0 1 16.79 87.355a49.849 49.849 0 0 1-13.82-25.6 49.54 49.54 0 0 1 2.873-28.89 50.11 50.11 0 0 1 18.6-22.439A50.86 50.86 0 0 1 52.5 2m23.23 24V13h5.05c3.905 0 7.07 2.91 7.07 6.5S84.685 26 80.78 26h-5.05zm0 0h-4.04m4.04 0v6m0 0v6m0-6h-4.04m4.04 0h7.07m20.2-6.5C103 38.479 92.374 49 79.265 49S55.53 38.479 55.53 25.5 66.156 2 79.265 2 103 12.521 103 25.5z" stroke="#e22521" stroke-width="3" stroke-linecap="round"/></svg>