<svg width="81" height="100" viewBox="0 0 81 100" fill="none" xmlns="http://www.w3.org/2000/svg"><path d="M79.41 34.824c.823 0 1.49-.655 1.49-1.465V19.21c0-2.894-2.293-5.276-5.22-5.423-17.662-.884-27.154-7.99-31.24-12.145A5.479 5.479 0 0 0 40.5 0c-1.5 0-2.9.583-3.94 1.64-4.086 4.157-13.579 11.262-31.24 12.146C2.393 13.933.1 16.315.1 19.208V60.05c0 11.763 6.434 22.724 16.79 28.606l16.849 9.567A13.687 13.687 0 0 0 40.5 100c2.338 0 4.676-.592 6.761-1.777l16.848-9.567C74.466 82.774 80.9 71.813 80.9 60.05V40.196c0-.81-.667-1.465-1.49-1.465-.822 0-1.488.656-1.488 1.465V60.05c0 10.72-5.864 20.708-15.302 26.069l-16.848 9.567a10.721 10.721 0 0 1-10.544 0L18.38 86.119C8.942 80.759 3.079 70.769 3.079 60.05V19.208a2.507 2.507 0 0 1 2.392-2.496c18.682-.935 28.839-8.568 33.23-13.035A2.5 2.5 0 0 1 40.5 2.93a2.5 2.5 0 0 1 1.799.748c4.391 4.466 14.547 12.099 33.23 13.034a2.507 2.507 0 0 1 2.392 2.496V33.36c0 .81.667 1.465 1.49 1.465z" fill="#e22521"/><path d="M9.613 38.73c-.822 0-1.489.657-1.489 1.466V60.05c0 8.951 4.896 17.294 12.778 21.772l16.848 9.567a5.583 5.583 0 0 0 5.5 0l16.849-9.568c7.881-4.477 12.777-12.82 12.777-21.77V24.606c0-1.73-1.312-3.195-3.05-3.409-13.358-1.652-22.145-6.644-27.166-10.542a3.53 3.53 0 0 0-4.322.002c-5.019 3.896-13.806 8.888-27.162 10.54-1.74.214-3.052 1.68-3.052 3.41v8.751c0 .81.667 1.465 1.49 1.465.822 0 1.489-.655 1.489-1.465v-8.752c0-.255.19-.47.444-.502 14.037-1.736 23.32-7.02 28.635-11.146a.519.519 0 0 1 .635-.001c5.316 4.127 14.6 9.41 28.638 11.148.252.03.443.246.443.501V60.05c0 7.908-4.326 15.279-11.289 19.234l-16.847 9.567a2.596 2.596 0 0 1-2.523 0l-16.848-9.567c-6.963-3.956-11.288-11.326-11.288-19.234V40.196c0-.81-.667-1.465-1.49-1.465z" fill="#e22521"/><path d="M22.448 46.563c1.209 0 2.346.463 3.2 1.304l7.783 7.652a1.507 1.507 0 0 0 2.105 0l8.525-8.385a1.45 1.45 0 0 0 0-2.072 1.507 1.507 0 0 0-2.106 0l-7.471 7.35-6.729-6.617a7.519 7.519 0 0 0-5.307-2.162 7.52 7.52 0 0 0-5.308 2.162 7.278 7.278 0 0 0-2.199 5.222 7.27 7.27 0 0 0 2.2 5.221l12.034 11.838a7.515 7.515 0 0 0 5.309 2.164c2.006 0 3.89-.769 5.306-2.163L63.86 44.4a7.272 7.272 0 0 0 2.2-5.221 7.277 7.277 0 0 0-2.2-5.222 7.519 7.519 0 0 0-5.307-2.162 7.52 7.52 0 0 0-5.307 2.162l-6.376 6.271a1.448 1.448 0 0 0 0 2.072 1.507 1.507 0 0 0 2.105 0l6.376-6.272a4.535 4.535 0 0 1 3.202-1.304 4.53 4.53 0 0 1 3.2 1.304 4.39 4.39 0 0 1 1.328 3.15c0 1.19-.471 2.309-1.327 3.15L37.683 66.006a4.529 4.529 0 0 1-3.2 1.304 4.531 4.531 0 0 1-3.201-1.305L19.245 54.166a4.386 4.386 0 0 1-1.326-3.149 4.39 4.39 0 0 1 1.327-3.15 4.534 4.534 0 0 1 3.2-1.304z" fill="#e22521"/></svg>